<?xml version="1.0" encoding="UTF-8"?>
<svg id="_图层_1" data-name="图层 1" xmlns="http://www.w3.org/2000/svg" viewBox="0 0 184.06 184.06">
    <defs>
        <style>
            .cls-1 {
            fill: #be302d;
            }

            .cls-2 {
            fill: #231815;
            }
        </style>
    </defs>
    <g>
        <path class="cls-1"
              d="M62.92,76.81l-15.89-15.89L107.96,0H28.35C12.69,0,0,12.69,0,28.35V95.31c9.43-4.34,19.92-6.78,30.98-6.78,40.99,0,74.22,33.23,74.22,74.22,0,7.41-1.1,14.55-3.12,21.3h53.62c15.66,0,28.35-12.69,28.35-28.35v-27.34L97.71,42.02l-34.79,34.79Z"/>
        <path class="cls-1" d="M155.71,0h-15.98l-26.14,26.13,70.46,70.46V28.35c0-15.66-12.69-28.35-28.35-28.35Z"/>
        <path class="cls-1"
              d="M5.93,115.25c-2,0-3.97,.1-5.93,.26v40.2c0,15.66,12.69,28.35,28.35,28.35h51.59c-2.78-38.46-34.84-68.8-74.01-68.8Z"/>
    </g>
    <g>
    </g>
</svg>
